<?xml version="1.0" encoding="UTF-8"?>
<!DOCTYPE svg PUBLIC "-//W3C//DTD SVG 1.1//EN" "http://www.w3.org/Graphics/SVG/1.1/DTD/svg11.dtd">
<!-- Creator: CorelDRAW 2020 (64 Bit) -->
<svg xmlns="http://www.w3.org/2000/svg" xml:space="preserve" width="285.84mm" height="132.45mm" version="1.1" style="shape-rendering:geometricPrecision; text-rendering:geometricPrecision; image-rendering:optimizeQuality; fill-rule:evenodd; clip-rule:evenodd"
viewBox="0 0 28584 13245"
 xmlns:xlink="http://www.w3.org/1999/xlink"
 xmlns:xodm="http://www.corel.com/coreldraw/odm/2003">
 <defs>
  <style type="text/css">
   <![CDATA[
    .str1 {stroke:white;stroke-width:17.64;stroke-miterlimit:22.9256}
    .str0 {stroke:white;stroke-width:7.62;stroke-miterlimit:22.9256}
    .fil1 {fill:white}
    .fil0 {fill:white;fill-rule:nonzero}
   ]]>
  </style>
 </defs>
 <g id="Camada_x0020_1">
  <metadata id="CorelCorpID_0Corel-Layer"/>
  <path class="fil0 str0" d="M3765.91 6809.96l-449.2 0 0 -449.2 -449.19 0 0 -449.19 -449.2 0 0 -449.2 -449.2 0 0 -449.2 0 -449.19 0 -449.2 0 -449.2 0 -449.19 0 -449.2 0 -449.2 0 -449.2 449.2 0 449.2 0 0 449.2 0 449.2 0 449.2 0 449.19 0 449.2 0 449.2 0 449.19 449.19 0 0 449.2 449.2 0 449.2 0 0 -449.2 449.19 0 0 -449.19 0 -449.2 0 -449.2 0 -449.19 0 -449.2 0 -449.2 0 -449.2 449.2 0 449.2 0 0 449.2 0 449.2 0 449.2 0 449.19 0 449.2 0 449.2 0 449.19 0 449.2 -449.2 0 0 449.2 -449.2 0 0 449.19 -449.19 0 0 449.2 -449.2 0zm4042.78 0l-449.2 0 -449.2 0 -449.19 0 0 -449.2 0 -449.19 449.19 0 0 -449.2 0 -449.2 0 -449.19 0 -449.2 0 -449.2 0 -449.19 0 -449.2 -449.19 0 0 -449.2 0 -449.2 449.19 0 449.2 0 449.2 0 449.19 0 0 449.2 0 449.2 -449.19 0 0 449.2 0 449.19 0 449.2 0 449.2 0 449.19 0 449.2 0 449.2 449.19 0 0 449.19 0 449.2 -449.19 0zm4042.77 0l-449.2 0 -449.2 0 -449.19 0 -449.2 0 0 -449.2 -449.2 0 0 -449.19 0 -449.2 0 -449.2 0 -449.19 0 -449.2 0 -449.2 0 -449.19 0 -449.2 0 -449.2 449.2 0 0 -449.2 449.2 0 449.19 0 449.2 0 449.2 0 449.19 0 0 449.2 449.2 0 0 449.2 0 449.2 -449.2 0 -449.19 0 0 -449.2 -449.2 0 -449.2 0 -449.19 0 0 449.2 0 449.19 0 449.2 0 449.2 0 449.19 0 449.2 0 449.2 449.19 0 449.2 0 449.2 0 0 -449.2 449.19 0 449.2 0 0 449.2 0 449.19 -449.2 0 0 449.2 -449.19 0zm3593.57 0l-449.19 0 0 -449.2 0 -449.19 0 -449.2 0 -449.2 0 -449.19 0 -449.2 0 -449.2 0 -449.19 0 -449.2 -449.2 0 -449.2 0 -449.19 0 0 -449.2 0 -449.2 449.19 0 449.2 0 449.2 0 449.19 0 449.2 0 449.2 0 449.19 0 449.2 0 0 449.2 0 449.2 -449.2 0 -449.19 0 -449.2 0 0 449.2 0 449.19 0 449.2 0 449.2 0 449.19 0 449.2 0 449.2 0 449.19 0 449.2 -449.2 0zm5839.56 0l-449.19 0 -449.2 0 -449.2 0 -449.19 0 -449.2 0 0 -449.2 -449.2 0 0 -449.19 0 -449.2 0 -449.2 0 -449.19 0 -449.2 0 -449.2 0 -449.19 0 -449.2 0 -449.2 449.2 0 0 -449.2 449.2 0 449.19 0 449.2 0 449.2 0 449.19 0 449.2 0 0 449.2 449.2 0 0 449.2 0 449.2 0 449.19 0 449.2 0 449.2 0 449.19 0 449.2 0 449.2 0 449.19 -449.2 0 0 449.2 -449.2 0zm-449.19 -898.39l449.19 0 0 -449.2 0 -449.2 0 -449.19 0 -449.2 0 -449.2 0 -449.19 0 -449.2 -449.19 0 -449.2 0 -449.2 0 -449.19 0 0 449.2 0 449.19 0 449.2 0 449.2 0 449.19 0 449.2 0 449.2 449.19 0 449.2 0 449.2 0zm5390.36 898.39l-449.19 0 0 -449.2 0 -449.19 0 -449.2 0 -449.2 0 -449.19 -449.2 0 -449.2 0 -449.19 0 -449.2 0 0 449.19 0 449.2 0 449.2 0 449.19 0 449.2 -449.2 0 -449.19 0 0 -449.2 0 -449.19 0 -449.2 0 -449.2 0 -449.19 0 -449.2 0 -449.2 0 -449.19 0 -449.2 0 -449.2 0 -449.2 449.19 0 449.2 0 449.2 0 449.19 0 449.2 0 449.2 0 449.19 0 0 449.2 449.2 0 0 449.2 0 449.2 0 449.19 0 449.2 -449.2 0 0 449.2 449.2 0 0 449.19 0 449.2 0 449.2 0 449.19 0 449.2 -449.2 0zm-898.39 -3144.38l449.2 0 0 -449.19 0 -449.2 -449.2 0 -449.2 0 -449.19 0 -449.2 0 0 449.2 0 449.19 449.2 0 449.19 0 449.2 0z"/>
  <path class="fil0 str0" d="M2259.98 10948.66l0 -339.52 1018.58 0 0 339.52 -1018.58 0zm1018.58 -339.52l0 -339.53 339.52 0 0 339.53 -339.52 0zm-1358.1 0l0 -1697.63 339.52 0 0 1697.63 -339.52 0zm1358.1 -1358.1l0 -339.53 339.52 0 0 339.53 -339.52 0zm-1018.58 -339.53l0 -339.52 1018.58 0 0 339.52 -1018.58 0z"/>
  <path class="fil0 str0" d="M5926.42 10948.66l0 -339.52 339.52 0 0 339.52 -339.52 0zm-339.53 -339.52l0 -339.53 339.53 0 0 339.53 -339.53 0zm339.53 -1018.58l0 -679.05 339.52 0 0 679.05 -339.52 0zm-1358.1 1358.1l0 -2376.67 1358.1 0 0 339.52 -1018.58 0 0 679.05 1018.58 0 0 339.53 -339.53 0 0 339.52 -339.52 0 0 -339.52 -339.53 0 0 1018.57 -339.52 0z"/>
  <polygon class="fil0 str0" points="7216.11,10948.66 7216.11,10609.14 7555.63,10609.14 7555.63,8911.51 7216.11,8911.51 7216.11,8571.99 8234.68,8571.99 8234.68,8911.51 7895.16,8911.51 7895.16,10609.14 8234.68,10609.14 8234.68,10948.66 "/>
  <path class="fil0 str0" d="M10882.52 10948.66l0 -339.52 -1358.1 0 0 339.52 1358.1 0zm-1358.1 -339.52l0 -679.05 -339.52 0 0 679.05 339.52 0zm1018.58 -679.05l0 -339.53 -1018.58 0 0 339.53 1018.58 0zm339.52 -339.53l0 -679.05 -339.52 0 0 679.05 339.52 0zm-339.52 -679.05l0 -339.52 -1358.1 0 0 339.52 1358.1 0z"/>
  <path class="fil0 str0" d="M12172.21 10948.66l0 -339.52 1018.58 0 0 339.52 -1018.58 0zm-339.52 -339.52l0 -1697.63 339.52 0 0 1697.63 -339.52 0zm1358.1 0l0 -1697.63 339.52 0 0 1697.63 -339.52 0zm-1018.58 -1697.63l0 -339.52 1018.58 0 0 339.52 -1018.58 0z"/>
  <path class="fil0 str0" d="M16178.17 10948.66l0 -339.52 -1358.1 0 0 339.52 1358.1 0zm-1358.1 -339.52l0 -679.05 -339.52 0 0 679.05 339.52 0zm1018.58 -679.05l0 -339.53 -1018.58 0 0 339.53 1018.58 0zm339.52 -339.53l0 -679.05 -339.52 0 0 679.05 339.52 0zm-339.52 -679.05l0 -339.52 -1358.1 0 0 339.52 1358.1 0z"/>
  <polygon class="fil0 str0" points="17807.39,10948.66 17807.39,8911.51 17128.34,8911.51 17128.34,8571.99 18825.96,8571.99 18825.96,8911.51 18146.91,8911.51 18146.91,10948.66 "/>
  <path class="fil0 str0" d="M20115.68 10948.66l0 -339.52 1018.58 0 0 339.52 -1018.58 0zm-339.52 -339.52l0 -1697.63 339.52 0 0 1697.63 -339.52 0zm1358.1 0l0 -1697.63 339.52 0 0 1697.63 -339.52 0zm-1018.58 -1697.63l0 -339.52 1018.58 0 0 339.52 -1018.58 0z"/>
  <path class="fil0 str0" d="M23103.04 9930.09l0 -679.05 339.52 0 0 679.05 -339.52 0zm-679.05 1018.57l0 -2376.67 339.52 0 0 339.52 339.53 0 0 339.53 -339.53 0 0 1697.62 -339.52 0zm1358.1 0l0 -1697.62 -339.53 0 0 -339.53 339.53 0 0 -339.52 339.52 0 0 2376.67 -339.52 0z"/>
  <path class="fil0 str0" d="M25411.33 10948.66l0 -339.52 1018.58 0 0 339.52 -1018.58 0zm-339.52 -339.52l0 -1697.63 339.52 0 0 1697.63 -339.52 0zm1358.1 0l0 -1697.63 339.52 0 0 1697.63 -339.52 0zm-1018.58 -1697.63l0 -339.52 1018.58 0 0 339.52 -1018.58 0z"/>
  <polygon class="fil1" points="431.92,5506.37 -0.58,5506.37 -0.58,434.23 431.92,434.23 "/>
  <polygon class="fil1" points="5583.01,6.99 5583.01,439.49 -0.58,439.49 -0.58,6.99 "/>
  <polygon class="fil1" points="28151.02,8571.99 28583.52,8571.99 28583.52,12616.59 28151.02,12616.59 "/>
  <polygon class="fil1" points="28583.52,12184.08 28583.52,12616.59 24538.92,12616.59 24538.92,12184.08 "/>
  <path class="fil0 str0" d="M9082.42 13101.42l0 -754.31 150.86 0 0 754.31 -150.86 0zm-603.45 150.86l0 -1056.03 603.45 0 0 150.86 -452.59 0 0 754.31 452.59 0 0 150.86 -603.45 0zm1754.96 0l0 -1056.03 754.31 0 0 150.86 -603.45 0 0 301.72 452.59 0 0 150.87 -452.59 0 0 301.72 603.45 0 0 150.86 -754.31 0zm2056.68 0l0 -150.86 150.86 0 0 150.86 -150.86 0zm-150.86 -150.86l0 -301.72 150.86 0 0 301.72 -150.86 0zm301.72 0l0 -301.72 150.87 0 0 301.72 -150.87 0zm-452.58 -301.72l0 -603.45 150.86 0 0 603.45 -150.86 0zm603.45 0l0 -603.45 150.86 0 0 603.45 -150.86 0zm1151.51 452.58l0 -1056.03 754.31 0 0 150.86 -603.45 0 0 301.72 452.59 0 0 150.87 -452.59 0 0 301.72 603.45 0 0 150.86 -754.31 0zm1754.96 0l0 -1056.03 150.86 0 0 905.17 603.45 0 0 150.86 -754.31 0zm1905.82 0l0 -150.86 452.59 0 0 150.86 -452.59 0zm-150.86 -150.86l0 -754.31 150.86 0 0 754.31 -150.86 0zm603.45 0l0 -754.31 150.86 0 0 754.31 -150.86 0zm-452.59 -754.31l0 -150.86 452.59 0 0 150.86 -452.59 0zm2207.55 301.72l0 -301.72 150.86 0 0 301.72 -150.86 0zm-603.45 603.45l0 -1056.03 603.45 0 0 150.86 -452.59 0 0 301.72 452.59 0 0 150.87 -452.59 0 0 452.58 -150.86 0zm1754.96 0l0 -1056.03 754.31 0 0 150.86 -603.45 0 0 301.72 452.59 0 0 150.87 -452.59 0 0 301.72 603.45 0 0 150.86 -754.31 0zm2358.41 0l0 -150.86 150.86 0 0 150.86 -150.86 0zm-150.87 -150.86l0 -150.86 150.87 0 0 150.86 -150.87 0zm150.87 -452.59l0 -301.72 150.86 0 0 301.72 -150.86 0zm-603.45 603.45l0 -1056.03 603.45 0 0 150.86 -452.59 0 0 301.72 452.59 0 0 150.87 -150.87 0 0 150.86 -150.86 0 0 -150.86 -150.86 0 0 452.58 -150.86 0z"/>
  <path class="fil0 str1" d="M13207.43 8004.8l-296.5 2.8 1.38 150.85 296.5 -2.8 -1.38 -150.85zm-295.12 153.65l-444.77 4.21 1.38 150.86 444.77 -4.21 -1.38 -150.86zm-443.39 155.07l-296.5 2.8 1.38 150.86 296.5 -2.81 -1.38 -150.85z"/>
 </g>
</svg>
